<?xml version="1.0" encoding="UTF-8"?>
<svg width="128px" height="128px" viewBox="0 0 128 128" version="1.1" xmlns="http://www.w3.org/2000/svg" xmlns:xlink="http://www.w3.org/1999/xlink">
    <!-- Generator: Sketch 50.2 (55047) - http://www.bohemiancoding.com/sketch -->
    <title>chrome-web-store-128x128@2x</title>
    <desc>Created with Sketch.</desc>
    <defs></defs>
    <g id="chrome-web-store-128x128" stroke="none" stroke-width="1" fill="none" fill-rule="evenodd">
        <g id="Logo-/-AI" transform="translate(29.000000, 29.000000)" fill="#FEFEFE">
            <path d="M68.2198632,40.3375476 L64.0677966,47.2164276 L64.0677966,39.2657094 L68.220339,32.3859192 L68.2198632,40.3375476 Z M56.3557814,60.2672751 L46.8644068,60.2672751 L51.6098679,51.9621904 L61.1016949,51.9621904 L56.3557814,60.2672751 Z M46.503457,66.1994785 L38.559322,66.1994785 L45.4456955,62.0469361 L53.3898305,62.0469361 L46.503457,66.1994785 Z M23.7264006,66.1953684 L18.9830508,57.8943937 L28.4765368,57.8985038 L33.220339,66.1994785 L23.7264006,66.1953684 Z M13.3965257,60.5077107 L9.49152542,53.7418514 L16.2644912,57.6539581 L20.1694915,64.4198175 L13.3965257,60.5077107 Z M2.37288136,40.6795688 L7.11932278,32.3859192 L11.8644068,40.6937483 L7.11298816,48.9960887 L2.37288136,40.6795688 Z M1.78727076,29.1685339 L5.93220339,22.3011734 L5.93220339,30.2520143 L1.77966102,37.1316819 L1.78727076,29.1685339 Z M13.0508475,9.25032595 L22.5423729,9.25032595 L17.7966102,17.5554107 L8.30508475,17.5554107 L13.0508475,9.25032595 Z M23.4967543,3.31812256 L31.440678,3.31812256 C30.7078689,3.75976101 25.2896332,7.02712491 24.5545483,7.47066493 L16.6101695,7.47066493 L23.4967543,3.31812256 Z M46.2707341,3.31812256 L51.0169492,11.6232073 L41.5254237,11.6232073 L36.779661,3.31812256 L46.2707341,3.31812256 Z M56.0093254,9.00900839 L59.9152542,15.7757497 C59.2635201,15.3996704 53.9543037,12.3337286 53.143217,11.8654203 L49.2372881,5.09778357 L56.0093254,9.00900839 Z M62.8818083,37.1316819 L58.1355932,28.8268256 L62.8818083,20.5215124 L67.6271186,28.8268256 L62.8818083,37.1316819 Z M61.6949153,18.9906477 L56.7015725,27.6401565 C55.6496133,27.0329222 49.1051156,23.2546787 48.0508475,22.6460591 C48.658564,21.5945973 52.4364737,15.0503211 53.0451138,13.9960887 C53.6297408,14.3336462 60.0689502,18.051859 61.6949153,18.9906477 Z M38.9072263,51.9621904 L43.8983051,60.6151794 L35.2453161,65.6062581 L30.2542373,56.9532691 L38.9072263,51.9621904 Z M34.0574753,21.9521529 L27.2881356,25.8604954 L31.1963142,19.0908718 C32.2052664,18.5082256 36.147032,16.2327256 37.9661017,15.1825293 L34.0574753,21.9521529 Z M46.2707341,21.7079531 L36.779661,21.7079531 C38.2397565,19.1533158 40.1236778,15.8560513 41.5254237,13.4028683 L51.0169492,13.4028683 C50.0765717,15.04853 47.2043268,20.0746304 46.2707341,21.7079531 Z M53.3898305,28.2333768 L45.4420695,28.2333768 L38.559322,24.0808344 L46.5070831,24.0808344 C47.9823478,24.9707329 51.9182084,27.3453818 53.3898305,28.2333768 Z M61.1016949,38.3181226 L51.6103203,38.3181226 C50.8702979,37.0233666 47.3737376,30.9042394 46.8644068,30.0130378 L56.3557814,30.0130378 C56.8176169,30.8210606 60.5362744,37.3286603 61.1016949,38.3181226 Z M35.3485611,46.9741516 C35.6189347,46.8182427 33.7840649,47.8777959 42.1186441,43.0638853 L38.2089704,49.8342731 L31.440678,53.7418514 L35.3485611,46.9741516 Z M23.7337867,47.809648 C24.5548123,47.8101048 32.0001033,47.8165004 33.220339,47.817414 L28.4700552,56.1147327 L18.9830508,56.1069667 L23.7337867,47.809648 Z M18.3884715,31.1994785 L23.1355932,39.5045632 L13.6313834,39.4958697 L8.89830508,31.1994785 L18.3884715,31.1994785 Z M34.7011206,45.4367666 C34.6879591,45.4290068 25.5211823,40.101207 25.5084746,40.0934472 L25.5084746,29.4200457 L34.702936,24.0808344 L43.8983051,29.4200457 L43.8983051,40.0989247 C43.8806051,40.1085104 34.7188206,45.4267245 34.7011206,45.4367666 Z M23.7288136,37.1316819 L19.576747,30.2484791 L19.5762712,22.3011734 L23.7288136,29.1839208 L23.7288136,37.1316819 Z M23.4765343,46.0223698 C22.4955599,45.4306082 17.5874938,42.4675156 16.6101695,41.8776584 L24.5528686,41.8776584 C24.8325604,42.046189 22.9477206,40.9102734 31.440678,46.029987 L23.4765343,46.0223698 Z M50.4237288,39.2689106 L50.4237288,47.2164276 L46.2711864,40.3334362 L46.2711864,32.3859192 C47.4863094,34.3997758 49.793806,38.2244188 50.4237288,39.2689106 Z M29.6610169,18.7418514 L24.9152542,27.0469361 L20.1694915,18.7423084 L24.9152542,10.4367666 C25.51051,11.4783299 29.0720937,17.7112567 29.6610169,18.7418514 Z M7.7211935,19.3350717 L17.7966102,19.3350717 L17.7966102,29.4198175 L7.71186441,29.4198175 L7.7211935,19.3350717 Z M16.9491439,55.5215124 L8.30508475,50.5210421 L13.305555,41.8774446 C14.3563417,42.4854789 20.8955958,46.2684955 21.9491525,46.8779149 C21.3517369,47.9111576 17.548868,54.4845762 16.9491439,55.5215124 Z M44.9497212,58.8500424 L40.3389831,50.7741501 C40.746997,50.0598374 44.4774745,43.5377923 45.0881383,42.4706649 L49.8305085,50.7773492 L45.0813532,59.0808344 L44.9497212,58.8500424 Z M62.2872031,50.1825293 L52.2033898,50.1825293 L52.2033898,40.0977836 L62.2881356,40.0977836 L62.2872031,50.1825293 Z M34.7516654,3.91134289 L39.7457627,12.5611444 L31.0957922,17.5554107 L26.1016949,8.90514744 L34.7516654,3.91134289 Z M12.1986761,61.8829044 L22.7778799,67.9709007 L47.2069504,67.9791395 L57.7889124,61.8966357 L69.9995403,40.8447371 L70,28.6783564 L57.795348,7.62325389 L47.213386,1.53846154 L22.7985658,1.53846154 L12.2161442,7.61867679 L0.0110324538,28.6412819 L0,40.8076627 L12.1986761,61.8829044 Z" id="Logo-/-PBC"></path>
        </g>
    </g>
</svg>